<svg xmlns="http://www.w3.org/2000/svg" viewBox="0 0 260 260" width="100%" height="100%">
  <defs>
    <linearGradient id="glassTeal" x1="0%" y1="0%" x2="100%" y2="100%">
      <stop offset="0%" stop-color="#14B8A6" stop-opacity="0.9" />
      <stop offset="35%" stop-color="#0D9488" stop-opacity="0.95" />
      <stop offset="100%" stop-color="#0F4C5C" stop-opacity="0.98" />
    </linearGradient>

    <linearGradient id="rimHighlight" x1="0%" y1="0%" x2="100%" y2="100%">
      <stop offset="0%" stop-color="#5EEAD4" stop-opacity="0.9" />
      <stop offset="50%" stop-color="#2DD4BF" stop-opacity="0.4" />
      <stop offset="100%" stop-color="#0F766E" stop-opacity="0.8" />
    </linearGradient>

    <linearGradient id="gold3D" x1="0%" y1="0%" x2="100%" y2="100%">
      <stop offset="0%" stop-color="#FDE047" />
      <stop offset="25%" stop-color="#EAB308" />
      <stop offset="65%" stop-color="#CA8A04" />
      <stop offset="100%" stop-color="#854D0E" />
    </linearGradient>

    <linearGradient id="goldSpec" x1="20%" y1="0%" x2="80%" y2="100%">
      <stop offset="0%" stop-color="#FEF08A" />
      <stop offset="50%" stop-color="#EAB308" />
      <stop offset="100%" stop-color="#A16207" />
    </linearGradient>

    <filter id="badgeShadow" x="-20%" y="-20%" width="140%" height="140%">
      <feDropShadow dx="0" dy="12" stdDeviation="16" flood-color="#000000" flood-opacity="0.5" />
    </filter>

    <filter id="goldShadow" x="-30%" y="-30%" width="160%" height="160%">
      <feDropShadow dx="3" dy="5" stdDeviation="4" flood-color="#000000" flood-opacity="0.4" />
    </filter>
  </defs>

  <g filter="url(#badgeShadow)">
    <rect x="0" y="0" width="260" height="260" rx="64" fill="url(#rimHighlight)" />
    <rect x="5" y="5" width="250" height="250" rx="60" fill="url(#glassTeal)" opacity="0.95" />
    <path d="M 25 65 Q 130 15 235 65" fill="none" stroke="#FFFFFF" stroke-width="3" stroke-linecap="round" opacity="0.4" />

    <g filter="url(#goldShadow)">
      <rect x="72" y="65" width="28" height="130" rx="14" fill="url(#gold3D)" />
      <rect x="75" y="68" width="10" height="124" rx="5" fill="#FEF08A" opacity="0.35" />
      <path d="M 90 135 L 155 72 C 161 66, 172 71, 168 79 L 108 145 Z" fill="url(#goldSpec)" />
      <path d="M 94 125 L 160 190 C 166 196, 157 204, 150 198 L 86 135 Z" fill="url(#gold3D)" />
      <path d="M 175 78 Q 175 66 185 66 Q 175 66 175 54 Q 175 66 165 66 Q 175 66 175 78 Z" fill="url(#goldSpec)" filter="url(#goldShadow)" />
      <circle cx="175" cy="66" r="3" fill="#FFFFFF" />
    </g>
  </g>
</svg>
